<?xml version="1.0" encoding="UTF-8" standalone="no"?>
<!-- Created with Inkscape (http://www.inkscape.org/) -->

<svg
   width="82.073227mm"
   height="56.902706mm"
   viewBox="0 0 82.073227 56.902706"
   version="1.1"
   id="svg428"
   sodipodi:docname="dracon-logo-white.svg"
   inkscape:version="1.1.2 (0a00cf5339, 2022-02-04)"
   xmlns:inkscape="http://www.inkscape.org/namespaces/inkscape"
   xmlns:sodipodi="http://sodipodi.sourceforge.net/DTD/sodipodi-0.dtd"
   xmlns="http://www.w3.org/2000/svg"
   xmlns:svg="http://www.w3.org/2000/svg">
  <sodipodi:namedview
     id="namedview430"
     pagecolor="#ffffff"
     bordercolor="#666666"
     borderopacity="1.0"
     inkscape:pageshadow="2"
     inkscape:pageopacity="0.0"
     inkscape:pagecheckerboard="0"
     inkscape:document-units="mm"
     showgrid="false"
     fit-margin-top="0"
     fit-margin-left="0"
     fit-margin-right="0"
     fit-margin-bottom="0"
     inkscape:zoom="0.77771465"
     inkscape:cx="184.51498"
     inkscape:cy="430.10634"
     inkscape:window-width="3440"
     inkscape:window-height="1330"
     inkscape:window-x="0"
     inkscape:window-y="27"
     inkscape:window-maximized="1"
     inkscape:current-layer="layer1" />
  <defs
     id="defs425" />
  <g
     inkscape:label="Layer 1"
     inkscape:groupmode="layer"
     id="layer1"
     transform="translate(-55.967005,-34.743133)">
    <path
       d="M 63.977246,79.359999 C 63.601749,78.866816 62.87344,78.396916 61.933604,78.396916 h -2.536966 v 9.866137 h 2.607522 c 0.939553,0 1.597589,-0.422628 1.973086,-0.915812 0.493325,-0.634294 0.681426,-0.845961 0.681426,-3.993797 0,-3.147484 -0.188101,-3.35915 -0.681426,-3.993445 z m 4.087531,5.731934 c -0.02343,1.127478 -0.140829,2.114197 -0.540033,3.030361 -0.939976,2.114198 -3.265417,3.382787 -5.520584,3.382787 H 55.967005 V 75.15524 h 5.966599 c 2.30244,0 4.651164,1.221317 5.59114,3.359151 0.4699,1.033639 0.563457,2.325511 0.563457,3.523544 0,2.513542 0,2.795765 -0.02342,3.053998"
       style="fill:#ffffff;fill-opacity:1;fill-rule:nonzero;stroke:none;stroke-width:0.0352778"
       id="path167" />
    <path
       d="m 76.59759,78.279441 h -3.147695 v 3.570817 h 3.03029 c 1.198351,0 2.114162,-0.657931 2.114162,-1.879248 0,-0.399344 -0.09384,-0.751769 -0.281869,-1.010355 -0.352425,-0.493184 -0.9398,-0.681214 -1.714888,-0.681214 z m -0.986685,6.695017 h -2.16101 v 6.530623 h -3.42953 V 75.15524 h 6.600649 c 1.808939,0 3.336114,0.587023 4.393036,2.114198 0.540456,0.751769 0.869245,1.66758 0.869245,2.701572 0,1.973086 -1.033639,3.64102 -2.819048,4.486628 l 3.735212,7.047443 h -3.87597 l -3.312584,-6.530623"
       style="fill:#ffffff;fill-opacity:1;fill-rule:nonzero;stroke:none;stroke-width:0.0352778"
       id="path169" />
    <path
       d="m 89.095837,84.974458 h 3.077281 l -1.527175,-4.557184 z m 4.110567,3.124553 h -5.144559 l -1.19768,3.40607 H 83.246428 L 89.283515,75.15524 h 2.701572 l 6.037439,16.349841 H 94.40479 l -1.198386,-3.40607"
       style="fill:#ffffff;fill-opacity:1;fill-rule:nonzero;stroke:none;stroke-width:0.0352778"
       id="path171" />
    <path
       d="m 104.21836,91.645839 c -2.23202,0 -4.604806,-1.221317 -5.5439,-3.35915 -0.4699,-1.080559 -0.540809,-2.419703 -0.540809,-3.711576 v -2.442986 c 0,-1.292225 0.07091,-2.701572 0.540809,-3.735211 0.939094,-2.137481 3.31188,-3.359151 5.5439,-3.359151 3.17077,0 5.45007,2.231673 6.08401,5.567187 h -3.5239 c -0.28151,-1.409347 -1.36207,-2.208036 -2.56011,-2.208036 -0.94015,0 -1.59808,0.42298 -1.99707,0.916164 -0.49319,0.610658 -0.65793,0.89288 -0.65793,4.040364 0,3.147836 0.16474,3.382786 0.65793,4.017081 0.39899,0.4699 1.05692,0.916164 1.99707,0.916164 1.19804,0 2.20804,-0.75177 2.56011,-2.231673 h 3.5239 c -0.61066,3.359503 -2.91324,5.590823 -6.08401,5.590823"
       style="fill:#ffffff;fill-opacity:1;fill-rule:nonzero;stroke:none;stroke-width:0.0352778"
       id="path173" />
    <path
       d="m 119.24846,79.31308 c -0.39899,-0.493184 -1.05692,-0.916164 -1.99672,-0.916164 -0.91581,0 -1.59703,0.42298 -1.97344,0.916164 -0.49318,0.610658 -0.68086,0.89288 -0.68086,4.040364 0,3.147836 0.18768,3.406422 0.68086,4.017081 0.37641,0.4699 1.05763,0.916164 1.97344,0.916164 0.9398,0 1.59773,-0.446264 1.99672,-0.916164 0.49318,-0.634295 0.65793,-0.869245 0.65793,-4.017081 0,-3.147484 -0.16475,-3.429706 -0.65793,-4.040364 z m 4.06471,5.919964 c -0.0945,1.127478 -0.11783,2.137481 -0.54116,3.053645 -0.98672,2.114197 -3.26532,3.35915 -5.52027,3.35915 -2.25531,0 -4.58082,-1.221317 -5.52062,-3.35915 -0.44556,-1.056923 -0.5401,-2.442987 -0.5401,-3.711576 v -2.442986 c 0,-1.292225 0.0702,-2.725209 0.5401,-3.735211 0.96344,-2.137481 3.26531,-3.359151 5.52062,-3.359151 2.25495,0 4.58117,1.22167 5.52027,3.359151 0.4699,1.033639 0.56444,2.442986 0.56444,3.735211 v 2.254956 c 0,0.305506 0,0.587375 -0.0233,0.845961"
       style="fill:#ffffff;fill-opacity:1;fill-rule:nonzero;stroke:none;stroke-width:0.0352778"
       id="path175" />
    <path
       d="m 134.61017,75.15524 h 3.43006 v 16.349841 h -3.0547 l -6.31896,-9.67846 v 9.67846 h -3.429 V 75.15524 h 3.05364 l 6.31896,9.67846 v -9.67846"
       style="fill:#ffffff;fill-opacity:1;fill-rule:nonzero;stroke:none;stroke-width:0.0352778"
       id="path177" />
    <path
       d="m 105.77729,37.627091 -7.1e-4,0.0014 c -0.0356,0.04974 -0.0804,0.09878 -0.13476,0.146756 h -3.5e-4 c -0.32103,0.273403 -0.80751,0.270228 -1.12501,-7.06e-4 -0.18803,-0.162278 -0.29598,-0.398639 -0.29598,-0.649111 0,-0.151694 0.037,-0.291042 0.11113,-0.416278 0.14887,-0.271991 0.43603,-0.440972 0.74965,-0.440972 0.47272,0 0.85725,0.384528 0.85725,0.85725 0,0.18027 -0.0557,0.353483 -0.16122,0.50165 z M 85.339812,37.167069 c 0,-0.474486 0.38488,-0.860425 0.857602,-0.860425 0.226131,0 0.441326,0.08819 0.604662,0.248708 0.1651,0.164747 0.255764,0.382058 0.255764,0.611717 0,0.229658 -0.09066,0.446617 -0.255412,0.611717 -0.164041,0.160513 -0.379236,0.249061 -0.605014,0.249061 -0.472722,0 -0.857602,-0.386292 -0.857602,-0.860778 z m 0.857602,2.385836 c 1.016001,0 1.936398,-0.66428 2.260601,-1.623131 h 14.380635 c 0.33725,0.948267 1.23049,1.581503 2.24261,1.581503 1.31339,0 2.38231,-1.070328 2.38231,-2.385836 0,-1.313744 -1.06892,-2.382308 -2.38231,-2.382308 -1.03646,0 -1.96109,0.679802 -2.2726,1.661583 H 88.458015 c -0.324556,-0.959203 -1.2446,-1.623483 -2.260601,-1.623483 -1.313744,0 -2.382308,1.070327 -2.382308,2.385836 0,1.315508 1.068564,2.385836 2.382308,2.385836"
       style="fill:#59c7c4;fill-opacity:1;fill-rule:nonzero;stroke:none;stroke-width:0.0352778"
       id="path179" />
    <path
       d="m 109.46664,41.654402 c 0.14958,-0.117475 0.33055,-0.179563 0.52246,-0.179563 0.47449,0 0.86043,0.386291 0.86043,0.860777 0,0.472723 -0.38594,0.85725 -0.86043,0.85725 -0.25823,0 -0.50094,-0.114652 -0.66498,-0.314677 -0.12383,-0.153459 -0.19227,-0.346428 -0.19227,-0.542573 0,-0.2667 0.12206,-0.515055 0.33479,-0.681214 z m -18.59245,0.604662 c 0,0.227541 -0.09419,0.449791 -0.258234,0.611011 -0.1651,0.15875 -0.379236,0.246591 -0.602544,0.246591 -0.474486,0 -0.860425,-0.38488 -0.860425,-0.857602 0,-0.474487 0.385939,-0.860425 0.860425,-0.860425 0.223308,0 0.438856,0.08855 0.605367,0.248708 0.164747,0.164747 0.255411,0.382058 0.255411,0.611717 z M 90.013412,39.87358 c -1.315156,0 -2.385484,1.070328 -2.385484,2.385484 0,1.313744 1.070328,2.382308 2.385484,2.382308 1.014589,0 1.933575,-0.662869 2.257778,-1.619603 h 15.44038 c 0.2988,1.001889 1.22555,1.696156 2.27753,1.696156 1.31516,0 2.38584,-1.068564 2.38584,-2.382309 0,-1.315508 -1.07068,-2.385483 -2.38584,-2.385483 -0.99377,0 -1.88101,0.618772 -2.22744,1.546578 H 92.27119 C 91.946634,40.537861 91.027648,39.87358 90.013412,39.87358"
       style="fill:#59c7c4;fill-opacity:1;fill-rule:nonzero;stroke:none;stroke-width:0.0352778"
       id="path181" />
    <path
       d="m 83.06757,47.351411 c 0,0.233892 -0.09137,0.45085 -0.257881,0.610659 l -0.0011,0.0011 c -0.158397,0.158044 -0.37077,0.245533 -0.598311,0.245533 -0.474486,0 -0.860425,-0.384528 -0.860425,-0.85725 0,-0.474486 0.385939,-0.860778 0.860425,-0.860778 0.224014,0 0.437797,0.08855 0.602191,0.249414 0.164748,0.16122 0.255059,0.378531 0.255059,0.611364 z m 27.87156,0.01376 c 0,-0.232833 0.0981,-0.460727 0.26847,-0.624416 0.15875,-0.1524 0.36936,-0.236361 0.59231,-0.236361 0.47272,0 0.85725,0.386291 0.85725,0.860777 0,0.474487 -0.38453,0.860778 -0.85725,0.860778 -0.23283,0 -0.45261,-0.09313 -0.61665,-0.261055 -0.1577,-0.167217 -0.24413,-0.379942 -0.24413,-0.599723 z m 0.86078,2.385484 c 1.31339,0 2.38231,-1.069975 2.38231,-2.385484 0,-1.315508 -1.06892,-2.385836 -2.38231,-2.385836 -1.02517,0 -1.92229,0.644172 -2.25354,1.609373 H 84.468098 c -0.324556,-0.958851 -1.243542,-1.623131 -2.257778,-1.623131 -1.315509,0 -2.385484,1.070328 -2.385484,2.385836 0,1.313392 1.069975,2.381956 2.385484,2.381956 1.014589,0 1.933575,-0.66287 2.257778,-1.619603 h 25.067332 c 0.32103,0.967317 1.24284,1.636889 2.26448,1.636889"
       style="fill:#59c7c4;fill-opacity:1;fill-rule:nonzero;stroke:none;stroke-width:0.0352778"
       id="path183" />
    <path
       d="m 88.753995,52.439878 c 0,0.233186 -0.09066,0.450145 -0.255058,0.611011 -0.164042,0.160867 -0.377825,0.249414 -0.602192,0.249414 -0.474486,0 -0.860778,-0.385939 -0.860778,-0.860425 0,-0.472722 0.386292,-0.85725 0.860778,-0.85725 0.227542,0 0.440972,0.08819 0.602192,0.249414 0.161925,0.15875 0.255058,0.380294 0.255058,0.607836 z m 23.903165,-0.01058 c 0,0.474486 -0.38453,0.860778 -0.85725,0.860778 -0.22648,0 -0.4378,-0.08467 -0.59584,-0.239536 -0.17075,-0.164395 -0.26494,-0.384881 -0.26494,-0.621242 0,-0.224014 0.0875,-0.436739 0.24695,-0.599017 0.15698,-0.164042 0.381,-0.25788 0.61383,-0.25788 0.47272,0 0.85725,0.384527 0.85725,0.856897 z m -0.85725,-2.381956 c -1.03893,0 -1.94063,0.653697 -2.26483,1.633361 H 90.15417 c -0.32773,-0.973666 -1.226608,-1.62313 -2.257425,-1.62313 -1.315508,0 -2.385483,1.068564 -2.385483,2.382308 0,1.315509 1.069975,2.385836 2.385483,2.385836 1.031875,0 1.931106,-0.649464 2.257425,-1.623483 h 19.38867 c 0.33196,0.967669 1.23084,1.6129 2.25707,1.6129 1.31339,0 2.38231,-1.070328 2.38231,-2.385836 0,-1.313392 -1.06892,-2.381956 -2.38231,-2.381956"
       style="fill:#59c7c4;fill-opacity:1;fill-rule:nonzero;stroke:none;stroke-width:0.0352778"
       id="path185" />
    <path
       d="m 94.117276,57.531873 c 0,0.233186 -0.09066,0.450144 -0.255058,0.611011 -0.164042,0.16122 -0.379236,0.249767 -0.60572,0.249767 -0.474486,0 -0.860778,-0.386292 -0.860778,-0.860778 0,-0.472722 0.386292,-0.85725 0.860778,-0.85725 0.223309,0 0.437092,0.08749 0.602192,0.245886 0.164394,0.161219 0.258586,0.383822 0.258586,0.611364 z m 15.871824,0.839611 c -0.22119,0 -0.42792,-0.08114 -0.58279,-0.230011 -0.17674,-0.163689 -0.27446,-0.387703 -0.27446,-0.630414 0,-0.221192 0.085,-0.431447 0.24024,-0.593019 0.15805,-0.167923 0.38312,-0.264231 0.61701,-0.264231 0.47449,0 0.86043,0.384528 0.86043,0.85725 0,0.474486 -0.38594,0.860425 -0.86043,0.860425 z m 0,-3.242733 c -1.02693,0 -1.94768,0.671336 -2.26166,1.640416 H 95.517451 c -0.330905,-0.97155 -1.231194,-1.619603 -2.260953,-1.619603 -1.313391,0 -2.382308,1.068917 -2.382308,2.382309 0,1.315508 1.068917,2.385836 2.382308,2.385836 1.016353,0 1.93675,-0.66428 2.260953,-1.623483 h 12.221639 c 0.3309,0.961319 1.22696,1.602669 2.25001,1.602669 1.31516,0 2.38584,-1.070328 2.38584,-2.385836 0,-1.313745 -1.07068,-2.382308 -2.38584,-2.382308"
       style="fill:#59c7c4;fill-opacity:1;fill-rule:nonzero;stroke:none;stroke-width:0.0352778"
       id="path187" />
    <path
       d="m 90.79799,62.623868 c 0,0.229658 -0.09066,0.446969 -0.255411,0.611716 -0.164395,0.160514 -0.379236,0.249061 -0.605367,0.249061 -0.472722,0 -0.85725,-0.386291 -0.85725,-0.860777 0,-0.472723 0.384528,-0.85725 0.85725,-0.85725 0.229658,0 0.443442,0.08749 0.602897,0.246591 0.166159,0.159809 0.257881,0.376767 0.257881,0.610659 z m 14.86958,-0.612775 0.005,0.0042 c 0.0349,0.0314 0.0632,0.06385 0.0847,0.0956 l 0.003,0.0042 0.009,0.01446 c 0.11042,0.148872 0.16934,0.323144 0.16934,0.504825 0,0.474486 -0.38453,0.860778 -0.85725,0.860778 -0.32174,0 -0.61242,-0.176389 -0.76024,-0.462139 -0.0667,-0.120298 -0.10054,-0.254353 -0.10054,-0.398639 0,-0.230717 0.0981,-0.4572 0.26741,-0.620536 0.16298,-0.152753 0.37359,-0.236714 0.59337,-0.236714 0.21978,0 0.42792,0.08326 0.58631,0.233892 z m -0.58631,-1.75895 c -1.02729,0 -1.92617,0.644172 -2.25707,1.609372 H 92.198165 c -0.327378,-0.97155 -1.22802,-1.619956 -2.260953,-1.619956 -1.313745,0 -2.382309,1.068917 -2.382309,2.382309 0,1.315508 1.068564,2.385836 2.382309,2.385836 1.016,0 1.936397,-0.664281 2.260953,-1.623131 h 10.618255 c 0.32421,0.980017 1.22626,1.633714 2.26484,1.633714 1.31339,0 2.38231,-1.070328 2.38231,-2.385836 0,-1.313745 -1.06892,-2.382308 -2.38231,-2.382308"
       style="fill:#59c7c4;fill-opacity:1;fill-rule:nonzero;stroke:none;stroke-width:0.0352778"
       id="path189" />
  </g>
</svg>
